<mxfile host="app.diagrams.net" modified="2022-12-28T15:22:20.891Z" agent="5.0 (Windows NT 10.0; Win64; x64) AppleWebKit/537.36 (KHTML, like Gecko) Chrome/108.0.0.0 Safari/537.36 Edg/108.0.1462.54" version="20.7.4" etag="FSDZ5X_LloAHiM9rBfr0" type="github">
  <diagram id="SZKFtumjnU7QpQDLwjqJ" name="Page-1">
    <mxGraphModel dx="1620" dy="764" grid="1" gridSize="10" guides="1" tooltips="1" connect="1" arrows="1" fold="1" page="1" pageScale="1" pageWidth="850" pageHeight="1100" math="0" shadow="0">
      <root>
        <mxCell id="0" />
        <mxCell id="1" parent="0" />
        <mxCell id="0q1fo0G3_Q3Y5v4Zs4Fp-5" style="edgeStyle=orthogonalEdgeStyle;rounded=0;orthogonalLoop=1;jettySize=auto;html=1;entryX=0;entryY=0.5;entryDx=0;entryDy=0;" edge="1" parent="1" source="0q1fo0G3_Q3Y5v4Zs4Fp-1" target="0q1fo0G3_Q3Y5v4Zs4Fp-2">
          <mxGeometry relative="1" as="geometry" />
        </mxCell>
        <mxCell id="0q1fo0G3_Q3Y5v4Zs4Fp-1" value="" style="rounded=0;whiteSpace=wrap;html=1;shadow=0;glass=0;" vertex="1" parent="1">
          <mxGeometry x="80" y="310" width="120" height="120" as="geometry" />
        </mxCell>
        <mxCell id="0q1fo0G3_Q3Y5v4Zs4Fp-6" style="edgeStyle=orthogonalEdgeStyle;rounded=0;orthogonalLoop=1;jettySize=auto;html=1;entryX=0;entryY=0.5;entryDx=0;entryDy=0;" edge="1" parent="1" source="0q1fo0G3_Q3Y5v4Zs4Fp-2" target="0q1fo0G3_Q3Y5v4Zs4Fp-3">
          <mxGeometry relative="1" as="geometry" />
        </mxCell>
        <mxCell id="0q1fo0G3_Q3Y5v4Zs4Fp-7" style="edgeStyle=orthogonalEdgeStyle;rounded=0;orthogonalLoop=1;jettySize=auto;html=1;exitX=1;exitY=0.5;exitDx=0;exitDy=0;entryX=0;entryY=0.5;entryDx=0;entryDy=0;" edge="1" parent="1" source="0q1fo0G3_Q3Y5v4Zs4Fp-2" target="0q1fo0G3_Q3Y5v4Zs4Fp-4">
          <mxGeometry relative="1" as="geometry" />
        </mxCell>
        <mxCell id="0q1fo0G3_Q3Y5v4Zs4Fp-2" value="" style="rounded=0;whiteSpace=wrap;html=1;" vertex="1" parent="1">
          <mxGeometry x="320" y="300" width="130" height="120" as="geometry" />
        </mxCell>
        <mxCell id="0q1fo0G3_Q3Y5v4Zs4Fp-3" value="" style="rounded=0;whiteSpace=wrap;html=1;" vertex="1" parent="1">
          <mxGeometry x="600" y="280" width="120" height="60" as="geometry" />
        </mxCell>
        <mxCell id="0q1fo0G3_Q3Y5v4Zs4Fp-4" value="" style="rounded=0;whiteSpace=wrap;html=1;" vertex="1" parent="1">
          <mxGeometry x="600" y="420" width="120" height="60" as="geometry" />
        </mxCell>
        <mxCell id="0q1fo0G3_Q3Y5v4Zs4Fp-8" value="Cluster manager" style="rounded=0;whiteSpace=wrap;html=1;shadow=0;glass=0;sketch=0;" vertex="1" parent="1">
          <mxGeometry x="330" y="360" width="100" height="50" as="geometry" />
        </mxCell>
        <mxCell id="0q1fo0G3_Q3Y5v4Zs4Fp-9" value="Master" style="text;html=1;strokeColor=none;fillColor=none;align=center;verticalAlign=middle;whiteSpace=wrap;rounded=0;shadow=0;glass=0;sketch=0;" vertex="1" parent="1">
          <mxGeometry x="355" y="320" width="60" height="30" as="geometry" />
        </mxCell>
      </root>
    </mxGraphModel>
  </diagram>
</mxfile>
